<svg xmlns="http://www.w3.org/2000/svg" xmlns:xlink="http://www.w3.org/1999/xlink" width="500" zoomAndPan="magnify" viewBox="0 0 375 374.999991" height="500" preserveAspectRatio="xMidYMid meet" version="1.0"><defs><clipPath id="3613448c9e"><path d="M 24.546875 24.195312 L 350.445312 24.195312 L 350.445312 350.445312 L 24.546875 350.445312 Z M 24.546875 24.195312 " clip-rule="nonzero"/></clipPath></defs><g clip-path="url(#3613448c9e)"><path stroke-linecap="round" transform="matrix(-16.312499, 0, 0, 16.312499, 350.795079, 24.193546)" fill="none" stroke-linejoin="round" d="M 10.999891 7.000109 L 13.999891 10.000109 M 13.999891 10.000109 L 10.999891 13.000109 M 13.999891 10.000109 L 5.99989 10.000109 M 18.999891 10.000109 C 18.999891 11.181862 18.767133 12.352121 18.314786 13.444314 C 17.862678 14.536029 17.199604 15.528127 16.364115 16.364094 C 15.528148 17.199583 14.53605 17.862657 13.444096 18.315004 C 12.352142 18.767111 11.181883 19.00011 9.999891 19.00011 C 8.818138 19.00011 7.647879 18.767111 6.555925 18.315004 C 5.463971 17.862657 4.471873 17.199583 3.636145 16.364094 C 2.800417 15.528127 2.137342 14.536029 1.684995 13.444314 C 1.232888 12.352121 0.99989 11.181862 0.99989 10.000109 C 0.99989 7.613136 1.948166 5.323863 3.636145 3.636124 C 5.323885 1.948145 7.613157 1.000108 9.999891 1.000108 C 12.386864 1.000108 14.676136 1.948145 16.364115 3.636124 C 18.051855 5.323863 18.999891 7.613136 18.999891 10.000109 Z M 18.999891 10.000109 " stroke="#ffffff" stroke-width="2" stroke-opacity="1" stroke-miterlimit="4"/></g></svg>