<svg xmlns="http://www.w3.org/2000/svg" xmlns:xlink="http://www.w3.org/1999/xlink" width="40" zoomAndPan="magnify" viewBox="0 0 30 30.000001" height="40" preserveAspectRatio="xMidYMid meet" version="1.0"><defs><clipPath id="b901e8f506"><path d="M 2.355469 1.875 L 27.636719 1.875 L 27.636719 27.277344 L 2.355469 27.277344 Z M 2.355469 1.875 " clip-rule="nonzero"/></clipPath></defs><g clip-path="url(#b901e8f506)"><path stroke-linecap="round" transform="matrix(-1.270161, 0, 0, 1.270161, 27.635397, 1.873051)" fill="none" stroke-linejoin="round" d="M 10.999655 7.001138 L 14.001242 9.999651 M 14.001242 9.999651 L 10.999655 13.001238 M 14.001242 9.999651 L 5.999059 9.999651 M 18.998763 9.999651 C 18.998763 11.180603 18.768108 12.352329 18.316024 13.444095 C 17.863941 14.535861 17.199655 15.529215 16.363147 16.362647 C 15.529715 17.199155 14.536361 17.863441 13.444595 18.315525 C 12.352829 18.767608 11.181103 19.001338 10.000151 19.001338 C 8.819198 19.001338 7.647472 18.767608 6.555706 18.315525 C 5.46394 17.863441 4.470586 17.199155 3.637154 16.362647 C 2.800646 15.529215 2.13636 14.535861 1.684277 13.444095 C 1.232193 12.352329 0.998463 11.180603 0.998463 9.999651 C 0.998463 7.613142 1.948761 5.325047 3.637154 3.636654 C 5.322471 1.948261 7.613642 1.001039 10.000151 1.001039 C 12.386659 1.001039 14.674754 1.948261 16.363147 3.636654 C 18.05154 5.325047 18.998763 7.613142 18.998763 9.999651 Z M 18.998763 9.999651 " stroke="#ffffff" stroke-width="2" stroke-opacity="1" stroke-miterlimit="4"/></g></svg>